<?xml version="1.0" encoding="UTF-8"?>
<svg width="54px" height="54px" viewBox="0 0 54 54" version="1.1" xmlns="http://www.w3.org/2000/svg" xmlns:xlink="http://www.w3.org/1999/xlink">
    <!-- Generator: Sketch 47.1 (45422) - http://www.bohemiancoding.com/sketch -->
    <title>icons8-barometer_gauge</title>
    <desc>Created with Sketch.</desc>
    <defs></defs>
    <g id="Page-1" stroke="none" stroke-width="1" fill="none" fill-rule="evenodd">
        <g id="Desktop-HD" transform="translate(-452.000000, -5330.000000)" fill-rule="nonzero" fill="#E7A750">
            <g id="Author" transform="translate(-36.000000, 3801.000000)">
                <g id="Group-2" transform="translate(0.000000, 763.000000)">
                    <g id="Group" transform="translate(488.000000, 766.000000)">
                        <g id="icons8-barometer_gauge">
                            <path d="M27,0 C12.101393,0 0,12.101393 0,27 C0,41.898607 12.101393,54 27,54 C41.898607,54 54,41.898607 54,27 C54,12.101393 41.898607,0 27,0 Z M26.5,2 C40.0442708,2 51,12.9557292 51,26.5 C51,40.0442708 40.0442708,51 26.5,51 C12.9557292,51 2,40.0442708 2,26.5 C2,12.9557292 12.9557292,2 26.5,2 Z M27,7 C26.449219,7 26,7.449219 26,8 C26,8.550781 26.449219,9 27,9 C27.550781,9 28,8.550781 28,8 C28,7.449219 27.550781,7 27,7 Z M19.9999998,8 C19.8724705,8 19.7565341,8.00777105 19.6290048,8.06216445 C19.122751,8.27196997 18.8638282,8.85864622 19.0725123,9.3676179 C19.2811975,9.87658958 19.864741,10.1369035 20.3709948,9.92709795 C20.8772486,9.71729343 21.1361724,9.13061618 20.9274872,8.6216445 C20.7690417,8.24088774 20.3864529,8.00388503 19.9999998,8 Z M34.0133349,8 C33.6217284,8.00388503 33.2340377,8.24088774 33.0734793,8.6216445 C32.8620123,9.13061618 33.1243879,9.71729343 33.6373926,9.92709795 C34.1503974,10.1369035 34.7103949,9.87658958 34.9218619,9.3676179 C35.1333299,8.85864622 34.9022818,8.27196997 34.3892771,8.06216445 C34.2600472,8.00777105 34.1425648,8 34.0133349,8 Z M14,13 C13.7451742,13 13.482626,13.0854374 13.2895753,13.2796117 C12.9034749,13.6679612 12.9034749,14.3203883 13.2895753,14.7087379 C13.6756757,15.0970874 14.3243243,15.0970874 14.7104247,14.7087379 C15.0965251,14.3203883 15.0965251,13.6679612 14.7104247,13.2796117 C14.517375,13.0854374 14.2548267,13 14,13 Z M40,13 C39.7451742,13 39.482626,13.0854374 39.2895753,13.2796117 C38.9034749,13.6679612 38.9034749,14.3203883 39.2895753,14.7087379 C39.6756757,15.0970874 40.3243243,15.0970874 40.7104247,14.7087379 C41.0965251,14.3203883 41.0965251,13.6679612 40.7104247,13.2796117 C40.517375,13.0854374 40.2548267,13 40,13 Z M37,16 L31.3357126,17.1868621 L32.7697094,18.5895173 L28.1092198,23.2650347 C27.6655767,23.0582336 27.1905658,22.9053796 26.675223,22.9053796 C24.7886212,22.9053796 23.2336306,24.4653842 23.2336306,26.3580693 C23.2336306,26.8885613 23.3770303,27.3830866 23.5921298,27.8326556 L20.1505375,31.2853454 C19.7382634,31.087535 19.2722144,30.9841339 18.8240904,30.9616557 C18.5507351,30.9481684 18.2684167,30.9796385 17.9995422,31.0335868 C17.9636923,31.0335868 17.9278424,31.0335868 17.8919925,31.0335868 C17.2690998,31.1819442 16.8837138,31.8113408 17.0315944,32.436242 C17.179475,33.0611431 17.8068486,33.4477719 18.4297413,33.2994144 C18.6538039,33.2544581 18.8957903,33.2544581 19.1108898,33.3353799 C19.2184395,33.6231041 19.43802,33.85688 19.7203384,33.9827593 C19.7920383,34.1895616 19.7965192,34.4143455 19.7561883,34.6301386 C19.6351946,35.2550398 20.0474687,35.8574616 20.6703613,35.9788456 C21.293254,36.1002295 21.8937396,35.686626 22.0147333,35.0617248 C22.153652,34.3469099 22.0371392,33.6051213 21.727934,32.9397592 L25.2053762,29.4511039 C25.6535002,29.666897 26.1464372,29.8107591 26.675223,29.8107591 C28.5618247,29.8107591 30.1168153,28.2507545 30.1168153,26.3580693 C30.1168153,25.8410647 29.9644537,25.3645222 29.7583161,24.9194486 L34.4188057,20.2439312 L35.8169526,21.6825519 L37,16 Z M8.9999998,19 C8.61354669,19.003885 8.23095787,19.2408877 8.07251235,19.6216445 C7.86382817,20.1306162 8.12275101,20.7172934 8.62900482,20.927098 C9.13525863,21.1369035 9.71880306,20.8765896 9.92748724,20.3676179 C10.1361724,19.8586462 9.87724859,19.27197 9.37099477,19.0621645 C9.2434655,19.0077711 9.12752907,19 8.9999998,19 Z M43.9999998,19 C43.8724705,19 43.7565341,19.0077711 43.6290048,19.0621645 C43.122751,19.27197 42.8638282,19.8586462 43.0725123,20.3676179 C43.2811975,20.8765896 43.864741,21.1369035 44.3709948,20.927098 C44.8772486,20.7172934 45.1361724,20.1306162 44.9274872,19.6216445 C44.7690417,19.2408877 44.3864529,19.003885 43.9999998,19 Z M8,26 C7.449219,26 7,26.449219 7,27 C7,27.550781 7.449219,28 8,28 C8.550781,28 9,27.550781 9,27 C9,26.449219 8.550781,26 8,26 Z M27,26 C27.28125,26 27.539063,26.101563 27.71875,26.28125 C27.730469,26.292969 27.738281,26.300781 27.75,26.3125 C27.910156,26.488281 28,26.734375 28,27 C28,27.5625 27.5625,28 27,28 C26.4375,28 26,27.5625 26,27 C26,26.4375 26.4375,26 27,26 Z M46,26 C45.449219,26 45,26.449219 45,27 C45,27.550781 45.449219,28 46,28 C46.550781,28 47,27.550781 47,27 C47,26.449219 46.550781,26 46,26 Z M8.9999998,33 C8.87247052,33 8.75653409,33.0078752 8.62900482,33.0629979 C8.12275101,33.2756164 7.86382817,33.8701586 8.07251235,34.3859544 C8.28119752,34.9017502 8.86474096,35.1340553 9.37099477,34.9214368 C9.87724859,34.7088193 10.1361724,34.1457751 9.92748724,33.6299793 C9.76904172,33.2441175 9.3864529,33.0039371 8.9999998,33 Z M43.9999998,33 C43.6135467,33.0039371 43.2309579,33.2441175 43.0725123,33.6299793 C42.8638282,34.1457751 43.122751,34.7088193 43.6290048,34.9214368 C44.1352586,35.1340553 44.7188031,34.9017502 44.9274872,34.3859544 C45.1361724,33.8701586 44.8772486,33.2756164 44.3709948,33.0629979 C44.2434655,33.0078752 44.1275291,33 43.9999998,33 Z M14,39 C13.7451742,39 13.482626,39.0854374 13.2895753,39.2796117 C12.9034749,39.6679612 12.9034749,40.3203883 13.2895753,40.7087379 C13.6756757,41.0970874 14.3243243,41.0970874 14.7104247,40.7087379 C15.0965251,40.3203883 15.0965251,39.6679612 14.7104247,39.2796117 C14.517375,39.0854374 14.2548267,39 14,39 Z M40,39 C39.7451742,39 39.482626,39.0854374 39.2895753,39.2796117 C38.9034749,39.6679612 38.9034749,40.3203883 39.2895753,40.7087379 C39.6756757,41.0970874 40.3243243,41.0970874 40.7104247,40.7087379 C41.0965251,40.3203883 41.0965251,39.6679612 40.7104247,39.2796117 C40.517375,39.0854374 40.2548267,39 40,39 Z M19.9866647,43 C19.5950582,43.003885 19.2386961,43.2408877 19.0781377,43.6216445 C18.8666707,44.1306162 19.0977177,44.7172934 19.6107225,44.927098 C20.1237272,45.1369035 20.7150533,44.8765896 20.9265203,44.3676179 C21.1379883,43.8586462 20.8756117,43.27197 20.3626069,43.0621645 C20.233377,43.0077711 20.1158946,43 19.9866647,43 Z M33.9999998,43 C33.8724705,43 33.7565341,43.0077711 33.6290048,43.0621645 C33.122751,43.27197 32.8638282,43.8586462 33.0725123,44.3676179 C33.2811975,44.8765896 33.864741,45.1369035 34.3709948,44.927098 C34.8772486,44.7172934 35.1361724,44.1306162 34.9274872,43.6216445 C34.7690417,43.2408877 34.3864529,43.003885 33.9999998,43 Z" id="Shape"></path>
                        </g>
                    </g>
                </g>
            </g>
        </g>
    </g>
</svg>