<?xml version="1.0" encoding="utf-8"?>
<svg xmlns="http://www.w3.org/2000/svg" viewBox="0 0 50 50" fill="#e0973f"><path style="line-height:normal;text-indent:0;text-align:start;text-decoration-line:none;text-decoration-style:solid;text-decoration-color:#000;text-transform:none;block-progression:tb;isolation:auto;mix-blend-mode:normal" d="M 9 4 C 6.2504839 4 4 6.2504839 4 9 L 4 41 C 4 43.749516 6.2504839 46 9 46 L 41 46 C 43.749516 46 46 43.749516 46 41 L 46 9 C 46 6.2504839 43.749516 4 41 4 L 9 4 z M 9 6 L 41 6 C 42.668484 6 44 7.3315161 44 9 L 44 41 C 44 42.668484 42.668484 44 41 44 L 9 44 C 7.3315161 44 6 42.668484 6 41 L 6 9 C 6 7.3315161 7.3315161 6 9 6 z M 16 14 A 1.0001 1.0001 0 0 0 15 15 L 15 23 A 1.0001 1.0001 0 0 0 16 24 L 19 24 A 1.0001 1.0001 0 0 0 20 23 L 20 15 A 1.0001 1.0001 0 0 0 19 14 L 16 14 z M 31 14 A 1.0001 1.0001 0 0 0 30 15 L 30 23 A 1.0001 1.0001 0 0 0 31 24 L 34 24 A 1.0001 1.0001 0 0 0 35 23 L 35 15 A 1.0001 1.0001 0 0 0 34 14 L 31 14 z M 17 16 L 18 16 L 18 22 L 17 22 L 17 16 z M 32 16 L 33 16 L 33 22 L 32 22 L 32 16 z M 25 30 C 22.802666 30 21 31.802666 21 34 L 21 37 A 1.0001 1.0001 0 0 0 22 38 L 28 38 A 1.0001 1.0001 0 0 0 29 37 L 29 34 C 29 31.802666 27.197334 30 25 30 z M 25 32 C 26.116666 32 27 32.883334 27 34 L 27 36 L 23 36 L 23 34 C 23 32.883334 23.883334 32 25 32 z" font-weight="400" font-family="sans-serif" white-space="normal" overflow="visible" fill="#e0973f"/></svg>
