<?xml version="1.0" encoding="utf-8"?>
<svg xmlns="http://www.w3.org/2000/svg" viewBox="0 0 50 50" fill="#e0973f"><path style="line-height:normal;text-indent:0;text-align:start;text-decoration-line:none;text-decoration-style:solid;text-decoration-color:#000;text-transform:none;block-progression:tb;isolation:auto;mix-blend-mode:normal" d="M 25 2 C 20.315589 2 15.957473 3.4087752 12.320312 5.8203125 C 12.111132 5.9392053 11.902621 6.0595242 11.707031 6.1953125 A 1.0001 1.0001 0 0 0 11.478516 6.4082031 C 5.7381091 10.592977 2 17.363297 2 25 C 2 37.688665 12.311335 48 25 48 C 31.15149 48 36.727236 45.560595 40.855469 41.617188 A 1.0001 1.0001 0 0 0 41.162109 41.320312 C 44.703123 37.810905 47.125914 33.174569 47.800781 27.984375 A 1.0001 1.0001 0 0 0 47.818359 27.832031 C 47.932823 26.903271 48 25.959371 48 25 C 48 22.83913 47.695628 20.749415 47.136719 18.765625 A 1.0001 1.0001 0 0 0 47.052734 18.472656 A 1.0001 1.0001 0 0 0 47.048828 18.464844 C 44.227517 8.9538344 35.418152 2 25 2 z M 25 4 C 34.251007 4 42.089001 9.9689649 44.892578 18.267578 C 44.888858 18.273962 44.882696 18.282896 44.878906 18.289062 C 44.814696 18.393556 44.767873 18.478568 44.720703 18.554688 C 44.532025 18.85916 44.527286 19 44 19 C 43.36164 19 42.46389 18.358232 41.353516 17.017578 C 40.243142 15.676924 38.984178 13.790171 37.435547 11.871094 C 34.467793 8.193427 30.290835 4.3491404 23.847656 4.0332031 C 24.229136 4.0126229 24.61334 4 25 4 z M 21 5.9960938 A 1 1 0 0 0 21 6 A 1 1 0 0 0 22 7 A 1 1 0 0 0 23 6 C 24.542609 6 25.93344 6.217356 27.199219 6.5996094 A 1 1 0 0 0 27.201172 6.5996094 A 1 1 0 0 0 28 7 A 1 1 0 0 0 28.248047 6.9667969 C 29.059732 7.2872177 29.814985 7.6775932 30.525391 8.1210938 A 1 1 0 0 0 30 9 A 1 1 0 0 0 31 10 A 1 1 0 0 0 31.988281 9.1542969 C 32.706842 9.7228604 33.365838 10.349595 33.994141 11 A 1 1 0 0 0 33 12 A 1 1 0 0 0 34 13 A 1 1 0 0 0 34.996094 12.085938 C 35.296127 12.431206 35.595044 12.777142 35.878906 13.128906 C 36.133817 13.444794 36.373398 13.760536 36.615234 14.076172 A 1 1 0 0 0 36 15 A 1 1 0 0 0 37 16 A 1 1 0 0 0 37.779297 15.625 C 38.252552 16.26756 38.708938 16.881274 39.15625 17.460938 A 1 1 0 0 0 39 18 A 1 1 0 0 0 40 19 A 1 1 0 0 0 40.376953 18.925781 C 40.936401 19.546429 41.514219 20.099333 42.152344 20.470703 A 1 1 0 0 0 42 21 A 1 1 0 0 0 43 22 A 1 1 0 0 0 44 21 C 44.645022 21 45.129617 20.775152 45.511719 20.494141 C 45.690755 21.314255 45.816965 22.153403 45.898438 23.005859 A 1 1 0 0 0 45 24 A 1 1 0 0 0 46 25 C 46 25.562054 45.970966 26.117115 45.927734 26.667969 C 44.569737 26.398145 42.785821 25.562717 40.919922 24.388672 A 1 1 0 0 0 41 24 A 1 1 0 0 0 40 23 A 1 1 0 0 0 39.292969 23.294922 C 38.666848 22.852077 38.044279 22.390538 37.419922 21.90625 A 1 1 0 0 0 38 21 A 1 1 0 0 0 37 20 A 1 1 0 0 0 36.021484 20.794922 C 35.290666 20.196665 34.581514 19.595396 33.894531 18.994141 A 1 1 0 0 0 34 19 A 1 1 0 0 0 35 18 A 1 1 0 0 0 34 17 A 1 1 0 0 0 33 18 A 1 1 0 0 0 33.027344 18.232422 C 32.248693 17.547498 31.415348 16.741007 30.552734 15.894531 A 1 1 0 0 0 31 16 A 1 1 0 0 0 32 15 A 1 1 0 0 0 31 14 A 1 1 0 0 0 30 15 A 1 1 0 0 0 30.117188 15.464844 C 28.71907 14.09034 27.227194 12.628028 25.623047 11.294922 C 22.805453 8.953396 19.618339 7 16 7 C 15.420931 7 14.884937 7.0320144 14.373047 7.0800781 C 14.685064 6.963399 15.017476 6.8599115 15.357422 6.7636719 A 1 1 0 0 0 16 7 A 1 1 0 0 0 16.912109 6.4042969 C 17.622229 6.271016 18.340291 6.1695997 19.021484 6.1074219 C 19.759773 6.0400326 20.410832 6.0118599 21 5.9960938 z M 25 8 A 1 1 0 0 0 24 9 A 1 1 0 0 0 25 10 A 1 1 0 0 0 26 9 A 1 1 0 0 0 25 8 z M 16 9 C 18.885661 9 21.680844 10.62101 24.34375 12.833984 C 27.006656 15.046959 29.479091 17.797233 31.802734 19.824219 C 34.070457 21.849945 36.725831 24.046872 39.337891 25.763672 C 41.534439 27.207373 43.67152 28.339456 45.675781 28.667969 C 45.555938 29.349374 45.402501 30.018809 45.21875 30.675781 C 37.902904 30.461486 32.433562 26.599987 27.4375 22.570312 C 22.297069 18.424195 17.703754 14 12 14 C 9.5390906 14 7.5649551 14.882474 6.0878906 15.912109 C 6.8950473 14.234019 7.909326 12.678805 9.1132812 11.285156 A 1.0003648 1.0003648 0 0 0 9.3242188 11.091797 C 9.3242188 11.091797 9.6496258 10.65968 10.691406 10.117188 C 11.733187 9.5746932 13.424465 9 16 9 z M 28 11 A 1 1 0 0 0 27 12 A 1 1 0 0 0 28 13 A 1 1 0 0 0 29 12 A 1 1 0 0 0 28 11 z M 12 16 C 13.455735 16 14.882508 16.391065 16.318359 17.054688 A 1 1 0 0 0 16 17 A 1 1 0 0 0 15 18 A 1 1 0 0 0 16 19 A 1 1 0 0 0 17 18 A 1 1 0 0 0 16.564453 17.175781 C 19.612028 18.648972 22.704728 21.322579 26.181641 24.126953 C 27.399102 25.108921 28.667651 26.097627 30.001953 27.039062 A 1 1 0 0 0 31 28 A 1 1 0 0 0 31.347656 27.935547 C 32.017427 28.373955 32.70652 28.791608 33.412109 29.191406 A 1 1 0 0 0 33 30 A 1 1 0 0 0 34 31 A 1 1 0 0 0 34.998047 30.050781 C 37.201945 31.13925 39.587968 31.97687 42.207031 32.392578 A 1 1 0 0 0 42 33 A 1 1 0 0 0 43 34 A 1 1 0 0 0 44 33 A 1 1 0 0 0 43.914062 32.597656 C 44.129172 32.615557 44.340412 32.640324 44.558594 32.652344 C 44.081471 33.87246 43.479287 35.026731 42.792969 36.123047 C 42.534766 36.257931 39.131526 38 35 38 C 29.925447 38 26.058989 37.294696 22.939453 36.337891 A 1 1 0 0 0 23 36 A 1 1 0 0 0 22 35 A 1 1 0 0 0 21.048828 35.697266 C 20.085811 35.339984 19.186573 34.966557 18.361328 34.589844 C 16.597702 33.784771 15.112986 32.956587 13.705078 32.291016 A 1 1 0 0 0 13.072266 32.001953 C 13.072266 32.001953 13.070312 32.001953 13.070312 32.001953 C 11.71446 31.406974 10.413121 31 9 31 C 7.3000002 31 6.0927277 31.77336 5.4003906 32.544922 C 5.1607572 31.922003 4.9544252 31.282532 4.7734375 30.632812 A 1 1 0 0 0 5 30 A 1 1 0 0 0 4.4101562 29.089844 C 4.1475133 27.766554 4 26.401181 4 25 A 1 1 0 0 0 5 24 A 1 1 0 0 0 4.1035156 23.005859 C 4.1922503 22.078952 4.3333508 21.167594 4.5371094 20.279297 A 1.0001 1.0001 0 0 0 4.6152344 20.169922 C 4.6152344 20.169922 7.220811 16 12 16 z M 10 17 A 1 1 0 0 0 9 18 A 1 1 0 0 0 10 19 A 1 1 0 0 0 11 18 A 1 1 0 0 0 10 17 z M 7 20 A 1 1 0 0 0 6 21 A 1 1 0 0 0 7 22 A 1 1 0 0 0 8 21 A 1 1 0 0 0 7 20 z M 13 20 A 1 1 0 0 0 12 21 A 1 1 0 0 0 13 22 A 1 1 0 0 0 14 21 A 1 1 0 0 0 13 20 z M 19 20 A 1 1 0 0 0 18 21 A 1 1 0 0 0 19 22 A 1 1 0 0 0 20 21 A 1 1 0 0 0 19 20 z M 10 23 A 1 1 0 0 0 9 24 A 1 1 0 0 0 10 25 A 1 1 0 0 0 11 24 A 1 1 0 0 0 10 23 z M 16 23 A 1 1 0 0 0 15 24 A 1 1 0 0 0 16 25 A 1 1 0 0 0 17 24 A 1 1 0 0 0 16 23 z M 22 23 A 1 1 0 0 0 21 24 A 1 1 0 0 0 22 25 A 1 1 0 0 0 23 24 A 1 1 0 0 0 22 23 z M 7 26 A 1 1 0 0 0 6 27 A 1 1 0 0 0 7 28 A 1 1 0 0 0 8 27 A 1 1 0 0 0 7 26 z M 13 26 A 1 1 0 0 0 12 27 A 1 1 0 0 0 13 28 A 1 1 0 0 0 14 27 A 1 1 0 0 0 13 26 z M 19 26 A 1 1 0 0 0 18 27 A 1 1 0 0 0 19 28 A 1 1 0 0 0 20 27 A 1 1 0 0 0 19 26 z M 25 26 A 1 1 0 0 0 24 27 A 1 1 0 0 0 25 28 A 1 1 0 0 0 26 27 A 1 1 0 0 0 25 26 z M 10 29 A 1 1 0 0 0 9 30 A 1 1 0 0 0 10 31 A 1 1 0 0 0 11 30 A 1 1 0 0 0 10 29 z M 16 29 A 1 1 0 0 0 15 30 A 1 1 0 0 0 16 31 A 1 1 0 0 0 17 30 A 1 1 0 0 0 16 29 z M 22 29 A 1 1 0 0 0 21 30 A 1 1 0 0 0 22 31 A 1 1 0 0 0 23 30 A 1 1 0 0 0 22 29 z M 28 29 A 1 1 0 0 0 27 30 A 1 1 0 0 0 28 31 A 1 1 0 0 0 29 30 A 1 1 0 0 0 28 29 z M 19 32 A 1 1 0 0 0 18 33 A 1 1 0 0 0 19 34 A 1 1 0 0 0 20 33 A 1 1 0 0 0 19 32 z M 25 32 A 1 1 0 0 0 24 33 A 1 1 0 0 0 25 34 A 1 1 0 0 0 26 33 A 1 1 0 0 0 25 32 z M 31 32 A 1 1 0 0 0 30 33 A 1 1 0 0 0 31 34 A 1 1 0 0 0 32 33 A 1 1 0 0 0 31 32 z M 37 32 A 1 1 0 0 0 36 33 A 1 1 0 0 0 37 34 A 1 1 0 0 0 38 33 A 1 1 0 0 0 37 32 z M 9 33 C 11.186985 33 13.61688 34.623297 17.53125 36.410156 C 21.44562 38.197015 26.819802 40 35 40 C 37.088243 40 38.980336 39.600945 40.492188 39.148438 C 40.237973 39.426679 39.975584 39.696623 39.707031 39.960938 C 39.416242 40.118157 35.830562 42 30 42 C 27.001903 42 24.658227 41.29446 22.619141 40.558594 C 20.580054 39.822727 18.857191 39 17 39 C 15.835721 39 14.828101 39.540313 14.427734 40.378906 C 14.027368 41.217499 14.140459 42.068171 14.324219 42.826172 C 14.349788 42.931643 14.39019 43.025377 14.419922 43.128906 C 11.00987 41.13123 8.2087987 38.206266 6.3769531 34.689453 C 6.4059324 34.60432 6.5207034 34.292363 6.8691406 33.896484 C 7.2684476 33.44281 7.8518757 33 9 33 z M 28 35 A 1 1 0 0 0 27 36 A 1 1 0 0 0 28 37 A 1 1 0 0 0 29 36 A 1 1 0 0 0 28 35 z M 34 35 A 1 1 0 0 0 33 36 A 1 1 0 0 0 34 37 A 1 1 0 0 0 35 36 A 1 1 0 0 0 34 35 z M 40 35 A 1 1 0 0 0 39 36 A 1 1 0 0 0 40 37 A 1 1 0 0 0 41 36 A 1 1 0 0 0 40 35 z M 17 41 C 18.203809 41 19.823993 41.677273 21.941406 42.441406 C 24.05882 43.20554 26.685097 44 30 44 C 31.791893 44 33.390037 43.817527 34.796875 43.5625 C 33.895566 44.04126 32.954005 44.453867 31.980469 44.798828 A 1 1 0 0 0 31 44 A 1 1 0 0 0 30 45 A 1 1 0 0 0 30.072266 45.373047 C 28.448401 45.778027 26.751461 46 25 46 A 1 1 0 0 0 26 45 A 1 1 0 0 0 25 44 A 1 1 0 0 0 24 45 A 1 1 0 0 0 24.923828 45.998047 C 23.199474 45.991884 21.52897 45.768791 19.927734 45.371094 A 1 1 0 0 0 20 45 A 1 1 0 0 0 19 44 A 1 1 0 0 0 18.019531 44.804688 C 17.723815 44.700356 17.433969 44.583843 17.144531 44.466797 C 17.024788 44.253202 16.708209 43.659644 16.441406 42.894531 A 1 1 0 0 0 17 42 A 1 1 0 0 0 16.373047 41.072266 C 16.468217 41.027513 16.643266 41 17 41 z" fill="#e0973f"/></svg>
